HIERARCHY
ROOT root
{
	OFFSET 0.000000 0.000000 0.000000
	CHANNELS 6 Xposition Yposition Zposition Zrotation Yrotation Xrotation
	JOINT lhip
	{
		OFFSET 0.058581 -0.082280 -0.017664
		CHANNELS 3 Zrotation Yrotation Xrotation
		JOINT lknee
		{
			OFFSET 0.043451 -0.386469 0.008037
			CHANNELS 3 Zrotation Yrotation Xrotation
			JOINT lankle
			{
				OFFSET -0.014790 -0.426874 -0.037428
				CHANNELS 3 Zrotation Yrotation Xrotation
				JOINT ltoe
				{
					OFFSET 0.041054 -0.060286 0.122042
					CHANNELS 3 Zrotation Yrotation Xrotation
					End Site
					{
						OFFSET 0.000000 0.000000 0.000000
					}
				}
			}
		}
	}
	JOINT rhip
	{
		OFFSET -0.060310 -0.090513 -0.013543
		CHANNELS 3 Zrotation Yrotation Xrotation
		JOINT rknee
		{
			OFFSET -0.043257 -0.383688 -0.004843
			CHANNELS 3 Zrotation Yrotation Xrotation
			JOINT rankle
			{
				OFFSET 0.019056 -0.420046 -0.034562
				CHANNELS 3 Zrotation Yrotation Xrotation
				JOINT rtoe
				{
					OFFSET -0.034840 -0.062106 0.130323
					CHANNELS 3 Zrotation Yrotation Xrotation
					End Site
					{
						OFFSET 0.000000 0.000000 0.000000
					}
				}
			}
		}
	}
	JOINT lowerback
	{
		OFFSET 0.004439 0.124404 -0.038385
		CHANNELS 3 Zrotation Yrotation Xrotation
		JOINT upperback
		{
			OFFSET 0.004488 0.137956 0.026820
			CHANNELS 3 Zrotation Yrotation Xrotation
			JOINT chest
			{
				OFFSET -0.002265 0.056032 0.002855
				CHANNELS 3 Zrotation Yrotation Xrotation
				JOINT lowerneck
				{
					OFFSET -0.013390 0.211636 -0.033468
					CHANNELS 3 Zrotation Yrotation Xrotation
					JOINT upperneck
					{
						OFFSET 0.010113 0.088937 0.050410
						CHANNELS 3 Zrotation Yrotation Xrotation
						End Site
						{
							OFFSET 0.000000 0.000000 0.000000
						}
					}
				}
				JOINT lclavicle
				{
					OFFSET 0.071702 0.114000 -0.018898
					CHANNELS 3 Zrotation Yrotation Xrotation
					JOINT lshoulder
					{
						OFFSET 0.122921 0.045205 -0.019046
						CHANNELS 3 Zrotation Yrotation Xrotation
						JOINT lelbow
						{
							OFFSET 0.255332 -0.015649 -0.022946
							CHANNELS 3 Zrotation Yrotation Xrotation
							JOINT lwrist
							{
								OFFSET 0.265709 0.012698 -0.007375
								CHANNELS 3 Zrotation Yrotation Xrotation
								End Site
								{
									OFFSET 0.000000 0.000000 0.000000
								}
							}
						}
					}
				}
				JOINT rclavicle
				{
					OFFSET -0.082954 0.112472 -0.023707
					CHANNELS 3 Zrotation Yrotation Xrotation
					JOINT rshoulder
					{
						OFFSET -0.113228 0.046853 -0.008472
						CHANNELS 3 Zrotation Yrotation Xrotation
						JOINT relbow
						{
							OFFSET -0.260127 -0.014369 -0.031269
							CHANNELS 3 Zrotation Yrotation Xrotation
							JOINT rwrist
							{
								OFFSET -0.269108 0.006794 -0.006027
								CHANNELS 3 Zrotation Yrotation Xrotation
								End Site
								{
									OFFSET 0.000000 0.000000 0.000000
								}
							}
						}
					}
				}
			}
		}
	}
}
MOTION
Frames: 5
Frame Time: 0.033333
0.370122 1.788713 0.984324 4.293039 1.060168 87.559096 -1.554913 -0.093605 10.037826 -8.822951 -16.024673 33.547342 -7.230755 6.783655 -7.857360 0.000000 -0.000000 0.000000 3.155044 4.152455 -20.867486 -1.008378 -6.092582 16.129433 2.053891 -9.424974 2.882783 0.000000 -0.000000 0.000000 1.758552 -3.991254 12.165167 3.742552 -0.737699 0.623007 1.436920 -2.505452 0.131142 2.758799 4.875077 -7.733609 -1.197198 1.780869 -1.059988 -26.706752 0.940536 2.262374 -55.054516 -5.866560 13.931051 1.714789 -26.311758 25.002961 -9.343561 -8.451717 8.258896 25.440512 -0.458721 -0.851205 52.380813 0.349948 12.238770 -9.924070 13.505180 2.041423 10.423744 1.812473 -6.429603 
0.366606 1.754665 0.988925 4.654478 1.143171 87.259597 -0.787378 -0.970730 5.395568 -10.964082 -14.196015 41.939487 -5.859773 5.652991 -0.377323 0.000000 -0.000000 0.000000 3.976174 3.455217 -18.272744 -0.845165 -5.243997 16.360954 0.388334 -9.386428 0.647086 0.000000 -0.000000 0.000000 1.697566 -2.801159 11.596877 4.256542 -1.810298 1.140415 1.360232 -2.900674 0.460360 2.730359 4.235070 -6.315523 -0.777360 1.223006 -0.568812 -26.010669 0.354035 2.299651 -53.880306 -5.587045 12.922541 2.506619 -21.987073 24.036857 -11.777420 -7.029011 7.907634 24.785844 -0.786354 -0.954773 51.693566 0.120642 11.449712 -10.479909 15.799906 1.983216 11.661628 1.820399 -8.377444 
0.363497 1.722195 0.992646 4.607468 1.061620 86.603439 -0.102390 -1.377096 1.192006 -11.630508 -11.202869 48.721879 -4.709411 6.185403 -0.864327 0.000000 -0.000000 0.000000 4.553489 2.698769 -15.113762 -0.590550 -4.334132 16.042612 -0.164768 -9.446697 -1.446106 0.000000 -0.000000 0.000000 1.457819 -1.607603 11.852689 4.508819 -2.544400 0.995202 1.277221 -3.019089 1.096572 3.047838 3.669718 -5.042227 -0.512038 0.512323 0.131995 -25.848491 0.267620 1.909781 -51.820411 -5.358807 11.377074 3.038191 -18.968892 22.298845 -12.860987 -6.220824 8.001988 24.889622 -1.247390 -1.465230 50.220194 0.169076 10.972105 -10.906467 18.937925 1.880856 12.209080 1.953072 -9.077769 
0.359950 1.683589 0.995594 3.617498 0.644669 85.871924 0.645401 -1.149404 -3.789190 -10.586454 -6.822568 53.735783 -2.351523 7.792144 -7.212255 0.000000 -0.000000 0.000000 5.158342 1.868979 -11.375235 -0.614634 -2.523670 15.436953 -0.048725 -9.596259 -3.714220 0.000000 -0.000000 0.000000 0.666626 -0.115477 12.046879 4.636405 -2.861148 1.072877 1.296053 -2.712991 2.028951 3.508045 3.014174 -3.656876 -0.569326 -0.135228 0.755673 -25.873997 0.934580 1.291484 -48.936196 -5.068580 9.144093 3.848346 -18.788285 19.284010 -11.457735 -5.867491 7.656990 25.376070 -1.525880 -2.017960 48.084569 1.065140 10.741475 -11.670979 23.452948 1.379929 11.396404 2.324698 -8.604540 
0.358341 1.661369 0.996770 2.613949 0.342270 85.524471 1.030110 -1.143465 -6.566905 -9.828061 -4.346424 54.889361 -1.053048 8.783810 -10.598937 0.000000 -0.000000 0.000000 5.297243 1.269361 -9.252799 -0.513789 -1.326905 14.932477 0.141814 -9.333160 -4.893556 0.000000 -0.000000 0.000000 0.199090 0.776839 11.990769 4.627659 -2.910809 1.338459 1.320683 -2.336168 2.597756 3.561910 2.694615 -2.947275 -0.607926 -0.508245 0.959697 -25.783108 1.419691 0.966817 -47.525161 -4.739150 8.039471 4.473688 -20.350517 16.990608 -9.426625 -5.915315 6.684628 25.498008 -1.374378 -2.159764 46.999914 1.994354 10.569544 -12.488700 26.100772 0.442074 10.224783 2.519036 -8.374387 
